<svg width="651" height="602" viewBox="0 0 651 602" fill="none" xmlns="http://www.w3.org/2000/svg">
<path d="M333.524 253C163.309 253 -26.4886 651.1 133.182 596.086C292.853 541.072 355.617 537.071 521.816 596.086C688.014 655.101 503.74 253 333.524 253Z" fill="#8A4FFF"/>
<path d="M73.5539 127C161.399 127 181.109 330 73.4536 330C-34.2022 330 -14.2908 127 73.5539 127Z" fill="white"/>
<path d="M229.554 0C317.399 0 337.109 203 229.454 203C121.798 203 141.709 0 229.554 0Z" fill="white"/>
<path d="M415.554 0C503.399 0 523.109 203 415.454 203C307.798 203 327.709 0 415.554 0Z" fill="white"/>
<path d="M577.554 127C665.399 127 685.109 330 577.454 330C469.798 330 489.709 127 577.554 127Z" fill="white"/>
</svg>
