<svg xmlns="http://www.w3.org/2000/svg" width="600" height="200" viewBox="0 0 600 200">
  <pattern id="pawPattern" width="60" height="60" patternUnits="userSpaceOnUse">
    <path d="M30 10c-2.5 0-4.5 2-4.5 4.5s2 4.5 4.5 4.5 4.5-2 4.5-4.5-2-4.5-4.5-4.5zm-10 10c-2 0-3.5 1.5-3.5 3.5s1.5 3.5 3.5 3.5 3.5-1.5 3.5-3.5-1.5-3.5-3.5-3.5zm20 0c-2 0-3.5 1.5-3.5 3.5s1.5 3.5 3.5 3.5 3.5-1.5 3.5-3.5-1.5-3.5-3.5-3.5zm-10 10c-3.5 0-6.5 3-6.5 6.5s3 6.5 6.5 6.5 6.5-3 6.5-6.5-3-6.5-6.5-6.5z" fill="#8a4fff" opacity="0.3"/>
  </pattern>
  <rect width="100%" height="100%" fill="url(#pawPattern)" />
</svg>
